<svg xmlns="http://www.w3.org/2000/svg" xmlns:xlink="http://www.w3.org/1999/xlink" width="1123" zoomAndPan="magnify" viewBox="0 0 841.92 595.499987" height="794" preserveAspectRatio="xMidYMid meet" version="1.0"><defs><g/><clipPath id="f97f063dca"><path d="M 0.3125 0 L 841.527344 0 L 841.527344 595 L 0.3125 595 Z M 0.3125 0 " clip-rule="nonzero"/></clipPath><clipPath id="bd384d29a3"><path d="M 163.144531 236.804688 L 716.917969 236.804688 L 716.917969 357.972656 L 163.144531 357.972656 Z M 163.144531 236.804688 " clip-rule="nonzero"/></clipPath><clipPath id="1ff2062802"><path d="M 223.730469 236.804688 L 656.359375 236.804688 C 672.429688 236.804688 687.839844 243.1875 699.199219 254.550781 C 710.5625 265.910156 716.945312 281.320312 716.945312 297.386719 C 716.945312 313.457031 710.5625 328.867188 699.199219 340.226562 C 687.839844 351.589844 672.429688 357.972656 656.359375 357.972656 L 223.730469 357.972656 C 207.660156 357.972656 192.253906 351.589844 180.890625 340.226562 C 169.527344 328.867188 163.144531 313.457031 163.144531 297.386719 C 163.144531 281.320312 169.527344 265.910156 180.890625 254.550781 C 192.253906 243.1875 207.660156 236.804688 223.730469 236.804688 Z M 223.730469 236.804688 " clip-rule="nonzero"/></clipPath><linearGradient x1="0.00351738" gradientTransform="matrix(0.47331, 0, 0, 0.47331, 163.144294, 236.804377)" y1="128" x2="1170.003499" gradientUnits="userSpaceOnUse" y2="128" id="71803e1b28"><stop stop-opacity="1" stop-color="rgb(0%, 90.59906%, 76.899719%)" offset="0"/><stop stop-opacity="1" stop-color="rgb(0%, 90.50293%, 76.800537%)" offset="0.0078125"/><stop stop-opacity="1" stop-color="rgb(0%, 90.309143%, 76.605225%)" offset="0.015625"/><stop stop-opacity="1" stop-color="rgb(0%, 90.116882%, 76.408386%)" offset="0.0234375"/><stop stop-opacity="1" stop-color="rgb(0%, 89.923096%, 76.213074%)" offset="0.03125"/><stop stop-opacity="1" stop-color="rgb(0%, 89.730835%, 76.016235%)" offset="0.0390625"/><stop stop-opacity="1" stop-color="rgb(0%, 89.537048%, 75.820923%)" offset="0.046875"/><stop stop-opacity="1" stop-color="rgb(0%, 89.344788%, 75.624084%)" offset="0.0546875"/><stop stop-opacity="1" stop-color="rgb(0%, 89.151001%, 75.428772%)" offset="0.0625"/><stop stop-opacity="1" stop-color="rgb(0%, 88.95874%, 75.231934%)" offset="0.0703125"/><stop stop-opacity="1" stop-color="rgb(0%, 88.764954%, 75.036621%)" offset="0.078125"/><stop stop-opacity="1" stop-color="rgb(0%, 88.572693%, 74.839783%)" offset="0.0859375"/><stop stop-opacity="1" stop-color="rgb(0%, 88.380432%, 74.64447%)" offset="0.09375"/><stop stop-opacity="1" stop-color="rgb(0%, 88.186646%, 74.447632%)" offset="0.101562"/><stop stop-opacity="1" stop-color="rgb(0%, 87.994385%, 74.252319%)" offset="0.109375"/><stop stop-opacity="1" stop-color="rgb(0%, 87.800598%, 74.055481%)" offset="0.117188"/><stop stop-opacity="1" stop-color="rgb(0%, 87.608337%, 73.860168%)" offset="0.125"/><stop stop-opacity="1" stop-color="rgb(0%, 87.414551%, 73.66333%)" offset="0.132812"/><stop stop-opacity="1" stop-color="rgb(0%, 87.22229%, 73.468018%)" offset="0.140625"/><stop stop-opacity="1" stop-color="rgb(0%, 87.028503%, 73.271179%)" offset="0.148438"/><stop stop-opacity="1" stop-color="rgb(0%, 86.836243%, 73.075867%)" offset="0.15625"/><stop stop-opacity="1" stop-color="rgb(0%, 86.642456%, 72.879028%)" offset="0.164063"/><stop stop-opacity="1" stop-color="rgb(0%, 86.450195%, 72.683716%)" offset="0.171875"/><stop stop-opacity="1" stop-color="rgb(0%, 86.257935%, 72.486877%)" offset="0.179688"/><stop stop-opacity="1" stop-color="rgb(0%, 86.064148%, 72.290039%)" offset="0.1875"/><stop stop-opacity="1" stop-color="rgb(0%, 85.871887%, 72.094727%)" offset="0.195312"/><stop stop-opacity="1" stop-color="rgb(0%, 85.678101%, 71.897888%)" offset="0.203125"/><stop stop-opacity="1" stop-color="rgb(0%, 85.48584%, 71.702576%)" offset="0.210938"/><stop stop-opacity="1" stop-color="rgb(0%, 85.292053%, 71.505737%)" offset="0.21875"/><stop stop-opacity="1" stop-color="rgb(0%, 85.099792%, 71.310425%)" offset="0.226562"/><stop stop-opacity="1" stop-color="rgb(0%, 84.906006%, 71.113586%)" offset="0.234375"/><stop stop-opacity="1" stop-color="rgb(0%, 84.713745%, 70.918274%)" offset="0.242188"/><stop stop-opacity="1" stop-color="rgb(0%, 84.519958%, 70.721436%)" offset="0.25"/><stop stop-opacity="1" stop-color="rgb(0%, 84.327698%, 70.526123%)" offset="0.257812"/><stop stop-opacity="1" stop-color="rgb(0%, 84.133911%, 70.329285%)" offset="0.265625"/><stop stop-opacity="1" stop-color="rgb(0%, 83.94165%, 70.133972%)" offset="0.273437"/><stop stop-opacity="1" stop-color="rgb(0%, 83.74939%, 69.937134%)" offset="0.28125"/><stop stop-opacity="1" stop-color="rgb(0%, 83.555603%, 69.741821%)" offset="0.289062"/><stop stop-opacity="1" stop-color="rgb(0%, 83.363342%, 69.544983%)" offset="0.296875"/><stop stop-opacity="1" stop-color="rgb(0%, 83.169556%, 69.34967%)" offset="0.304688"/><stop stop-opacity="1" stop-color="rgb(0%, 82.977295%, 69.152832%)" offset="0.3125"/><stop stop-opacity="1" stop-color="rgb(0%, 82.783508%, 68.95752%)" offset="0.320312"/><stop stop-opacity="1" stop-color="rgb(0%, 82.591248%, 68.760681%)" offset="0.328125"/><stop stop-opacity="1" stop-color="rgb(0%, 82.397461%, 68.565369%)" offset="0.335938"/><stop stop-opacity="1" stop-color="rgb(0%, 82.2052%, 68.36853%)" offset="0.34375"/><stop stop-opacity="1" stop-color="rgb(0%, 82.011414%, 68.173218%)" offset="0.351562"/><stop stop-opacity="1" stop-color="rgb(0%, 81.819153%, 67.976379%)" offset="0.359375"/><stop stop-opacity="1" stop-color="rgb(0%, 81.626892%, 67.781067%)" offset="0.367188"/><stop stop-opacity="1" stop-color="rgb(0%, 81.433105%, 67.584229%)" offset="0.375"/><stop stop-opacity="1" stop-color="rgb(0%, 81.240845%, 67.388916%)" offset="0.382813"/><stop stop-opacity="1" stop-color="rgb(0%, 81.047058%, 67.192078%)" offset="0.390625"/><stop stop-opacity="1" stop-color="rgb(0%, 80.854797%, 66.996765%)" offset="0.398438"/><stop stop-opacity="1" stop-color="rgb(0%, 80.661011%, 66.799927%)" offset="0.40625"/><stop stop-opacity="1" stop-color="rgb(0%, 80.46875%, 66.604614%)" offset="0.414063"/><stop stop-opacity="1" stop-color="rgb(0%, 80.274963%, 66.407776%)" offset="0.421875"/><stop stop-opacity="1" stop-color="rgb(0%, 80.082703%, 66.212463%)" offset="0.429688"/><stop stop-opacity="1" stop-color="rgb(0%, 79.888916%, 66.015625%)" offset="0.4375"/><stop stop-opacity="1" stop-color="rgb(0%, 79.696655%, 65.820312%)" offset="0.445312"/><stop stop-opacity="1" stop-color="rgb(0%, 79.502869%, 65.623474%)" offset="0.453125"/><stop stop-opacity="1" stop-color="rgb(0%, 79.310608%, 65.428162%)" offset="0.460938"/><stop stop-opacity="1" stop-color="rgb(0%, 79.118347%, 65.231323%)" offset="0.46875"/><stop stop-opacity="1" stop-color="rgb(0%, 78.924561%, 65.036011%)" offset="0.476562"/><stop stop-opacity="1" stop-color="rgb(0%, 78.7323%, 64.839172%)" offset="0.484375"/><stop stop-opacity="1" stop-color="rgb(0%, 78.538513%, 64.64386%)" offset="0.492188"/><stop stop-opacity="1" stop-color="rgb(0%, 78.346252%, 64.447021%)" offset="0.5"/><stop stop-opacity="1" stop-color="rgb(0%, 78.152466%, 64.251709%)" offset="0.507812"/><stop stop-opacity="1" stop-color="rgb(0%, 77.960205%, 64.054871%)" offset="0.515625"/><stop stop-opacity="1" stop-color="rgb(0%, 77.766418%, 63.859558%)" offset="0.523438"/><stop stop-opacity="1" stop-color="rgb(0%, 77.574158%, 63.66272%)" offset="0.53125"/><stop stop-opacity="1" stop-color="rgb(0%, 77.380371%, 63.467407%)" offset="0.539062"/><stop stop-opacity="1" stop-color="rgb(0%, 77.18811%, 63.270569%)" offset="0.546875"/><stop stop-opacity="1" stop-color="rgb(0%, 76.99585%, 63.075256%)" offset="0.554688"/><stop stop-opacity="1" stop-color="rgb(0%, 76.802063%, 62.878418%)" offset="0.5625"/><stop stop-opacity="1" stop-color="rgb(0%, 76.609802%, 62.683105%)" offset="0.570312"/><stop stop-opacity="1" stop-color="rgb(0%, 76.416016%, 62.486267%)" offset="0.578125"/><stop stop-opacity="1" stop-color="rgb(0%, 76.223755%, 62.290955%)" offset="0.585938"/><stop stop-opacity="1" stop-color="rgb(0%, 76.029968%, 62.094116%)" offset="0.59375"/><stop stop-opacity="1" stop-color="rgb(0%, 75.837708%, 61.898804%)" offset="0.601563"/><stop stop-opacity="1" stop-color="rgb(0%, 75.643921%, 61.701965%)" offset="0.609375"/><stop stop-opacity="1" stop-color="rgb(0%, 75.45166%, 61.506653%)" offset="0.617188"/><stop stop-opacity="1" stop-color="rgb(0%, 75.257874%, 61.309814%)" offset="0.625"/><stop stop-opacity="1" stop-color="rgb(0%, 75.065613%, 61.114502%)" offset="0.632812"/><stop stop-opacity="1" stop-color="rgb(0%, 74.871826%, 60.917664%)" offset="0.640625"/><stop stop-opacity="1" stop-color="rgb(0%, 74.679565%, 60.722351%)" offset="0.648437"/><stop stop-opacity="1" stop-color="rgb(0%, 74.487305%, 60.525513%)" offset="0.65625"/><stop stop-opacity="1" stop-color="rgb(0%, 74.293518%, 60.3302%)" offset="0.664062"/><stop stop-opacity="1" stop-color="rgb(0%, 74.101257%, 60.133362%)" offset="0.671875"/><stop stop-opacity="1" stop-color="rgb(0%, 73.907471%, 59.938049%)" offset="0.679687"/><stop stop-opacity="1" stop-color="rgb(0%, 73.71521%, 59.741211%)" offset="0.6875"/><stop stop-opacity="1" stop-color="rgb(0%, 73.521423%, 59.545898%)" offset="0.695312"/><stop stop-opacity="1" stop-color="rgb(0%, 73.329163%, 59.34906%)" offset="0.703125"/><stop stop-opacity="1" stop-color="rgb(0%, 73.135376%, 59.153748%)" offset="0.710937"/><stop stop-opacity="1" stop-color="rgb(0%, 72.943115%, 58.956909%)" offset="0.71875"/><stop stop-opacity="1" stop-color="rgb(0%, 72.749329%, 58.761597%)" offset="0.726562"/><stop stop-opacity="1" stop-color="rgb(0%, 72.557068%, 58.564758%)" offset="0.734375"/><stop stop-opacity="1" stop-color="rgb(0%, 72.364807%, 58.369446%)" offset="0.742187"/><stop stop-opacity="1" stop-color="rgb(0%, 72.171021%, 58.172607%)" offset="0.75"/><stop stop-opacity="1" stop-color="rgb(0%, 71.97876%, 57.977295%)" offset="0.757812"/><stop stop-opacity="1" stop-color="rgb(0%, 71.784973%, 57.780457%)" offset="0.765625"/><stop stop-opacity="1" stop-color="rgb(0%, 71.592712%, 57.585144%)" offset="0.773438"/><stop stop-opacity="1" stop-color="rgb(0%, 71.398926%, 57.388306%)" offset="0.78125"/><stop stop-opacity="1" stop-color="rgb(0%, 71.206665%, 57.192993%)" offset="0.789062"/><stop stop-opacity="1" stop-color="rgb(0%, 71.012878%, 56.996155%)" offset="0.796875"/><stop stop-opacity="1" stop-color="rgb(0%, 70.820618%, 56.800842%)" offset="0.804688"/><stop stop-opacity="1" stop-color="rgb(0%, 70.626831%, 56.604004%)" offset="0.8125"/><stop stop-opacity="1" stop-color="rgb(0%, 70.43457%, 56.407166%)" offset="0.820312"/><stop stop-opacity="1" stop-color="rgb(0%, 70.24231%, 56.211853%)" offset="0.828125"/><stop stop-opacity="1" stop-color="rgb(0%, 70.048523%, 56.015015%)" offset="0.835938"/><stop stop-opacity="1" stop-color="rgb(0%, 69.856262%, 55.819702%)" offset="0.84375"/><stop stop-opacity="1" stop-color="rgb(0%, 69.662476%, 55.622864%)" offset="0.851562"/><stop stop-opacity="1" stop-color="rgb(0%, 69.470215%, 55.427551%)" offset="0.859375"/><stop stop-opacity="1" stop-color="rgb(0%, 69.276428%, 55.230713%)" offset="0.867188"/><stop stop-opacity="1" stop-color="rgb(0%, 69.084167%, 55.0354%)" offset="0.875"/><stop stop-opacity="1" stop-color="rgb(0%, 68.890381%, 54.838562%)" offset="0.882812"/><stop stop-opacity="1" stop-color="rgb(0%, 68.69812%, 54.64325%)" offset="0.890625"/><stop stop-opacity="1" stop-color="rgb(0%, 68.504333%, 54.446411%)" offset="0.898438"/><stop stop-opacity="1" stop-color="rgb(0%, 68.312073%, 54.251099%)" offset="0.90625"/><stop stop-opacity="1" stop-color="rgb(0%, 68.118286%, 54.05426%)" offset="0.914062"/><stop stop-opacity="1" stop-color="rgb(0%, 67.926025%, 53.858948%)" offset="0.921875"/><stop stop-opacity="1" stop-color="rgb(0%, 67.733765%, 53.662109%)" offset="0.929688"/><stop stop-opacity="1" stop-color="rgb(0%, 67.539978%, 53.466797%)" offset="0.9375"/><stop stop-opacity="1" stop-color="rgb(0%, 67.347717%, 53.269958%)" offset="0.945313"/><stop stop-opacity="1" stop-color="rgb(0%, 67.153931%, 53.074646%)" offset="0.953125"/><stop stop-opacity="1" stop-color="rgb(0%, 66.96167%, 52.877808%)" offset="0.960938"/><stop stop-opacity="1" stop-color="rgb(0%, 66.767883%, 52.682495%)" offset="0.96875"/><stop stop-opacity="1" stop-color="rgb(0%, 66.575623%, 52.485657%)" offset="0.976563"/><stop stop-opacity="1" stop-color="rgb(0%, 66.381836%, 52.290344%)" offset="0.984375"/><stop stop-opacity="1" stop-color="rgb(0%, 66.189575%, 52.093506%)" offset="0.992188"/><stop stop-opacity="1" stop-color="rgb(0%, 65.995789%, 51.898193%)" offset="1"/></linearGradient><clipPath id="c635f87e33"><path d="M 223 259.109375 L 321 259.109375 L 321 335 L 223 335 Z M 223 259.109375 " clip-rule="nonzero"/></clipPath><clipPath id="329696f05a"><path d="M 222 259.109375 L 321.378906 259.109375 L 321.378906 335.542969 L 222 335.542969 Z M 222 259.109375 " clip-rule="nonzero"/></clipPath></defs><g clip-path="url(#f97f063dca)"><path fill="#ffffff" d="M 0.3125 0 L 841.855469 0 L 841.855469 595 L 0.3125 595 Z M 0.3125 0 " fill-opacity="1" fill-rule="nonzero"/><path fill="#ffffff" d="M 0.3125 0 L 841.855469 0 L 841.855469 595 L 0.3125 595 Z M 0.3125 0 " fill-opacity="1" fill-rule="nonzero"/></g><g clip-path="url(#bd384d29a3)"><g clip-path="url(#1ff2062802)"><path fill="url(#71803e1b28)" d="M 163.144531 236.804688 L 163.144531 357.972656 L 716.917969 357.972656 L 716.917969 236.804688 Z M 163.144531 236.804688 " fill-rule="nonzero"/></g></g><g clip-path="url(#c635f87e33)"><path fill="#ffffff" d="M 318.871094 274.667969 C 318.203125 272.9375 317.28125 271.355469 316.039062 270.027344 C 312.820312 266.597656 307.40625 264.3125 302.953125 263.054688 C 296.058594 261.113281 288.75 260.234375 281.605469 260 C 272.699219 259.710938 263.75 260.285156 254.972656 261.8125 C 246.230469 263.332031 236.980469 265.636719 230.285156 271.824219 C 221.785156 279.683594 222.1875 292.554688 225.796875 302.828125 C 227.953125 308.96875 231.65625 314.375 237.136719 317.988281 C 239.71875 319.691406 242.574219 320.863281 245.542969 321.6875 C 247.183594 325.53125 247.472656 329.617188 243.558594 331.773438 C 242.234375 332.503906 242.769531 334.808594 244.351562 334.695312 C 252.179688 334.136719 258.9375 329.640625 263.648438 323.503906 C 263.964844 323.09375 267.648438 323.277344 268.289062 323.21875 C 269.992188 323.074219 271.691406 322.878906 273.382812 322.652344 C 280.554688 321.6875 287.699219 321.167969 294.796875 319.636719 C 301.925781 318.097656 309.546875 315.867188 313.851562 309.519531 C 317.636719 303.933594 319.820312 296.757812 320.308594 290.097656 C 320.65625 285.378906 320.722656 279.460938 318.871094 274.667969 " fill-opacity="1" fill-rule="nonzero"/></g><g clip-path="url(#329696f05a)"><path fill="#231f20" d="M 318.871094 274.667969 L 319.644531 274.371094 C 318.949219 272.5625 317.976562 270.878906 316.644531 269.460938 C 314.9375 267.644531 312.703125 266.171875 310.332031 264.984375 C 307.957031 263.796875 305.445312 262.898438 303.179688 262.257812 C 296.199219 260.289062 288.828125 259.40625 281.632812 259.171875 C 280.144531 259.121094 278.65625 259.097656 277.167969 259.097656 C 269.6875 259.097656 262.199219 259.714844 254.828125 260.996094 C 250.4375 261.757812 245.894531 262.722656 241.578125 264.289062 C 237.261719 265.855469 233.171875 268.027344 229.71875 271.214844 C 227.117188 273.617188 225.316406 276.480469 224.171875 279.574219 C 223.023438 282.667969 222.535156 285.988281 222.535156 289.339844 C 222.535156 294.035156 223.496094 298.792969 225.011719 303.105469 C 226.113281 306.242188 227.613281 309.199219 229.546875 311.84375 C 231.484375 314.488281 233.851562 316.816406 236.679688 318.679688 C 239.347656 320.441406 242.289062 321.644531 245.320312 322.484375 L 245.542969 321.6875 L 244.777344 322.011719 C 245.441406 323.558594 245.855469 325.125 245.851562 326.503906 C 245.851562 327.457031 245.664062 328.3125 245.246094 329.0625 C 244.824219 329.816406 244.175781 330.484375 243.15625 331.046875 C 242.753906 331.269531 242.449219 331.597656 242.253906 331.960938 C 242.0625 332.324219 241.976562 332.722656 241.976562 333.105469 C 241.980469 333.6875 242.164062 334.257812 242.542969 334.726562 C 242.734375 334.957031 242.976562 335.160156 243.265625 335.304688 C 243.554688 335.449219 243.890625 335.527344 244.238281 335.527344 C 244.296875 335.527344 244.351562 335.527344 244.402344 335.523438 L 244.410156 335.523438 C 248.46875 335.234375 252.242188 333.921875 255.597656 331.902344 C 258.953125 329.878906 261.894531 327.148438 264.308594 324.007812 L 263.804688 323.621094 L 264.160156 324.152344 C 264.191406 324.125 264.246094 324.085938 264.308594 324.007812 L 263.804688 323.621094 L 264.160156 324.152344 L 263.9375 323.820312 L 264.097656 324.183594 C 264.105469 324.179688 264.125 324.171875 264.160156 324.152344 L 263.9375 323.820312 L 264.097656 324.183594 L 264.058594 324.09375 L 264.089844 324.1875 L 264.097656 324.183594 L 264.058594 324.09375 L 264.089844 324.1875 C 264.097656 324.183594 264.207031 324.152344 264.355469 324.136719 C 264.585938 324.105469 264.910156 324.082031 265.265625 324.070312 C 265.625 324.058594 266.015625 324.054688 266.398438 324.054688 C 266.90625 324.054688 267.394531 324.0625 267.769531 324.0625 C 267.890625 324.0625 268 324.058594 268.09375 324.058594 C 268.191406 324.058594 268.273438 324.054688 268.355469 324.046875 L 268.359375 324.046875 C 270.078125 323.898438 271.789062 323.703125 273.496094 323.476562 C 280.632812 322.515625 287.796875 321.996094 294.972656 320.449219 C 298.558594 319.671875 302.304688 318.71875 305.734375 317.132812 C 307.449219 316.339844 309.085938 315.386719 310.574219 314.214844 C 312.066406 313.039062 313.414062 311.648438 314.539062 309.984375 C 318.425781 304.246094 320.636719 296.953125 321.140625 290.15625 C 321.25 288.636719 321.332031 286.984375 321.332031 285.28125 C 321.332031 281.652344 320.960938 277.78125 319.648438 274.371094 L 318.09375 274.96875 C 319.296875 278.078125 319.671875 281.769531 319.671875 285.28125 C 319.671875 286.933594 319.589844 288.542969 319.480469 290.035156 C 319.003906 296.5625 316.847656 303.621094 313.160156 309.054688 C 312.136719 310.566406 310.917969 311.832031 309.546875 312.910156 C 307.492188 314.527344 305.09375 315.722656 302.539062 316.652344 C 299.984375 317.585938 297.277344 318.25 294.621094 318.824219 C 287.597656 320.34375 280.476562 320.863281 273.273438 321.832031 C 271.589844 322.058594 269.90625 322.246094 268.21875 322.394531 L 268.222656 322.394531 C 268.203125 322.394531 268.140625 322.398438 268.0625 322.398438 C 267.984375 322.398438 267.882812 322.402344 267.769531 322.402344 C 267.414062 322.402344 266.921875 322.394531 266.398438 322.394531 C 265.785156 322.394531 265.128906 322.402344 264.574219 322.445312 C 264.296875 322.46875 264.042969 322.496094 263.808594 322.546875 C 263.691406 322.570312 263.574219 322.601562 263.445312 322.65625 C 263.382812 322.683594 263.3125 322.71875 263.238281 322.769531 C 263.160156 322.820312 263.074219 322.886719 262.988281 322.996094 C 260.691406 325.992188 257.894531 328.578125 254.738281 330.480469 C 251.582031 332.382812 248.0625 333.597656 244.292969 333.867188 L 244.351562 334.695312 L 244.300781 333.867188 C 244.277344 333.867188 244.253906 333.867188 244.238281 333.867188 C 244.136719 333.867188 244.070312 333.847656 244.007812 333.816406 C 243.914062 333.773438 243.828125 333.6875 243.753906 333.558594 C 243.683594 333.433594 243.640625 333.265625 243.640625 333.105469 C 243.640625 332.964844 243.671875 332.835938 243.726562 332.738281 C 243.78125 332.636719 243.847656 332.566406 243.960938 332.5 C 245.210938 331.8125 246.125 330.910156 246.699219 329.867188 C 247.277344 328.828125 247.519531 327.675781 247.515625 326.503906 C 247.515625 324.800781 247.027344 323.046875 246.308594 321.359375 C 246.210938 321.128906 246.007812 320.953125 245.765625 320.886719 C 242.859375 320.082031 240.085938 318.9375 237.597656 317.296875 C 234.945312 315.546875 232.71875 313.363281 230.890625 310.867188 C 229.066406 308.371094 227.636719 305.554688 226.578125 302.554688 C 225.121094 298.398438 224.195312 293.808594 224.195312 289.339844 C 224.195312 286.152344 224.667969 283.023438 225.730469 280.148438 C 226.796875 277.273438 228.453125 274.652344 230.851562 272.433594 C 234.09375 269.433594 237.976562 267.363281 242.144531 265.847656 C 246.3125 264.335938 250.765625 263.386719 255.113281 262.628906 C 262.386719 261.367188 269.78125 260.757812 277.167969 260.757812 C 278.636719 260.757812 280.109375 260.78125 281.578125 260.828125 C 288.671875 261.0625 295.917969 261.933594 302.726562 263.855469 C 304.910156 264.472656 307.332031 265.339844 309.585938 266.46875 C 311.835938 267.59375 313.917969 268.980469 315.429688 270.59375 C 316.589844 271.828125 317.457031 273.316406 318.09375 274.96875 L 318.871094 274.667969 " fill-opacity="1" fill-rule="nonzero"/></g><path fill="#ffffff" d="M 295.925781 265.46875 C 297.058594 265.382812 298.019531 265.554688 299.066406 266.078125 " fill-opacity="1" fill-rule="nonzero"/><path fill="#231f20" d="M 295.988281 266.296875 C 296.15625 266.285156 296.3125 266.277344 296.464844 266.277344 C 297.253906 266.28125 297.910156 266.433594 298.695312 266.820312 C 299.105469 267.027344 299.605469 266.859375 299.808594 266.449219 C 300.015625 266.039062 299.851562 265.542969 299.4375 265.335938 C 298.46875 264.847656 297.492188 264.613281 296.464844 264.617188 C 296.265625 264.617188 296.066406 264.625 295.859375 264.640625 C 295.402344 264.675781 295.058594 265.074219 295.097656 265.535156 C 295.128906 265.988281 295.53125 266.332031 295.988281 266.296875 " fill-opacity="1" fill-rule="nonzero"/><path fill="#ffffff" d="M 300.460938 266.949219 C 307.09375 268.082031 312.851562 273.214844 314.949219 279.570312 " fill-opacity="1" fill-rule="nonzero"/><path fill="#231f20" d="M 300.324219 267.765625 C 303.46875 268.304688 306.433594 269.796875 308.855469 271.925781 C 311.28125 274.050781 313.160156 276.804688 314.15625 279.832031 C 314.300781 280.265625 314.769531 280.503906 315.207031 280.359375 C 315.644531 280.21875 315.882812 279.746094 315.738281 279.3125 C 314.640625 275.984375 312.59375 272.992188 309.957031 270.679688 C 307.320312 268.367188 304.085938 266.726562 300.601562 266.132812 C 300.148438 266.054688 299.71875 266.355469 299.640625 266.808594 C 299.566406 267.261719 299.871094 267.6875 300.324219 267.765625 " fill-opacity="1" fill-rule="nonzero"/><path fill="#231f20" d="M 314.902344 281.574219 C 314.902344 281.921875 314.902344 282.183594 314.902344 282.445312 C 314.902344 282.902344 315.273438 283.273438 315.734375 283.273438 C 316.191406 283.273438 316.566406 282.902344 316.566406 282.445312 C 316.566406 282.183594 316.566406 281.921875 316.566406 281.574219 C 316.566406 281.113281 316.191406 280.742188 315.734375 280.742188 C 315.273438 280.742188 314.902344 281.113281 314.902344 281.574219 " fill-opacity="1" fill-rule="nonzero"/><path fill="#ffffff" d="M 272.714844 319.179688 C 273.675781 319.179688 274.546875 319.007812 275.507812 318.917969 " fill-opacity="1" fill-rule="nonzero"/><path fill="#231f20" d="M 272.714844 320.011719 C 273.246094 320.011719 273.738281 319.960938 274.210938 319.90625 C 274.679688 319.851562 275.128906 319.785156 275.582031 319.746094 C 276.039062 319.703125 276.375 319.300781 276.335938 318.84375 C 276.292969 318.386719 275.890625 318.050781 275.433594 318.09375 C 274.925781 318.140625 274.457031 318.207031 274.011719 318.257812 C 273.566406 318.3125 273.144531 318.351562 272.714844 318.351562 C 272.253906 318.351562 271.882812 318.722656 271.882812 319.179688 C 271.882812 319.636719 272.253906 320.011719 272.714844 320.011719 " fill-opacity="1" fill-rule="nonzero"/><path fill="#ffffff" d="M 279.171875 318.570312 C 281.09375 318.136719 283.097656 318.222656 285.019531 317.960938 C 288.769531 317.613281 292.523438 316.828125 296.097656 315.4375 " fill-opacity="1" fill-rule="nonzero"/><path fill="#231f20" d="M 279.355469 319.378906 C 280.242188 319.179688 281.179688 319.09375 282.148438 319.027344 C 283.121094 318.964844 284.121094 318.921875 285.132812 318.785156 L 285.019531 317.960938 L 285.09375 318.789062 C 288.910156 318.433594 292.738281 317.636719 296.402344 316.210938 C 296.832031 316.042969 297.042969 315.5625 296.875 315.136719 C 296.707031 314.707031 296.226562 314.496094 295.796875 314.664062 C 292.304688 316.023438 288.628906 316.792969 284.941406 317.136719 L 284.90625 317.140625 C 283.996094 317.261719 283.035156 317.308594 282.039062 317.375 C 281.046875 317.4375 280.019531 317.527344 278.988281 317.761719 C 278.539062 317.863281 278.257812 318.308594 278.359375 318.753906 C 278.460938 319.203125 278.90625 319.480469 279.355469 319.378906 " fill-opacity="1" fill-rule="nonzero"/><g fill="#ffffff" fill-opacity="1"><g transform="translate(345.79084, 316.392363)"><g><path d="M 4.40625 0 L 4.40625 -34.96875 L 11.8125 -34.96875 L 11.8125 0 Z M 4.40625 0 "/></g></g></g><g fill="#ffffff" fill-opacity="1"><g transform="translate(362.007721, 316.392363)"><g><path d="M 25.8125 0 L 23.265625 -8.328125 L 10.53125 -8.328125 L 7.984375 0 L 0 0 L 12.34375 -35.109375 L 21.40625 -35.109375 L 33.796875 0 Z M 21.5 -14.546875 C 19.15625 -22.085938 17.832031 -26.351562 17.53125 -27.34375 C 17.238281 -28.332031 17.03125 -29.113281 16.90625 -29.6875 C 16.382812 -27.644531 14.878906 -22.597656 12.390625 -14.546875 Z M 21.5 -14.546875 "/></g></g></g><g fill="#ffffff" fill-opacity="1"><g transform="translate(395.804853, 316.392363)"><g/></g></g><g fill="#ffffff" fill-opacity="1"><g transform="translate(408.529603, 316.392363)"><g><path d="M 24.34375 -34.96875 L 31.828125 -34.96875 L 19.953125 0 L 11.859375 0 L 0 -34.96875 L 7.484375 -34.96875 L 14.0625 -14.15625 C 14.425781 -12.925781 14.800781 -11.492188 15.1875 -9.859375 C 15.582031 -8.234375 15.828125 -7.097656 15.921875 -6.453125 C 16.097656 -7.921875 16.695312 -10.488281 17.71875 -14.15625 Z M 24.34375 -34.96875 "/></g></g></g><g fill="#ffffff" fill-opacity="1"><g transform="translate(440.365402, 316.392363)"><g><path d="M 25.8125 0 L 23.265625 -8.328125 L 10.53125 -8.328125 L 7.984375 0 L 0 0 L 12.34375 -35.109375 L 21.40625 -35.109375 L 33.796875 0 Z M 21.5 -14.546875 C 19.15625 -22.085938 17.832031 -26.351562 17.53125 -27.34375 C 17.238281 -28.332031 17.03125 -29.113281 16.90625 -29.6875 C 16.382812 -27.644531 14.878906 -22.597656 12.390625 -14.546875 Z M 21.5 -14.546875 "/></g></g></g><g fill="#ffffff" fill-opacity="1"><g transform="translate(474.162534, 316.392363)"><g><path d="M 35.421875 0 L 26 0 L 10.78125 -26.453125 L 10.578125 -26.453125 C 10.878906 -21.785156 11.03125 -18.453125 11.03125 -16.453125 L 11.03125 0 L 4.40625 0 L 4.40625 -34.96875 L 13.75 -34.96875 L 28.9375 -8.78125 L 29.109375 -8.78125 C 28.867188 -13.320312 28.75 -16.535156 28.75 -18.421875 L 28.75 -34.96875 L 35.421875 -34.96875 Z M 35.421875 0 "/></g></g></g><g fill="#ffffff" fill-opacity="1"><g transform="translate(513.98718, 316.392363)"><g><path d="M 38.453125 0 L 30.015625 0 L 25.28125 -18.375 C 25.101562 -19.019531 24.800781 -20.367188 24.375 -22.421875 C 23.957031 -24.472656 23.71875 -25.847656 23.65625 -26.546875 C 23.5625 -25.679688 23.320312 -24.296875 22.9375 -22.390625 C 22.550781 -20.492188 22.253906 -19.140625 22.046875 -18.328125 L 17.34375 0 L 8.921875 0 L 0 -34.96875 L 7.296875 -34.96875 L 11.765625 -15.875 C 12.546875 -12.351562 13.113281 -9.300781 13.46875 -6.71875 C 13.5625 -7.625 13.78125 -9.03125 14.125 -10.9375 C 14.46875 -12.84375 14.789062 -14.320312 15.09375 -15.375 L 20.1875 -34.96875 L 27.1875 -34.96875 L 32.296875 -15.375 C 32.515625 -14.5 32.789062 -13.160156 33.125 -11.359375 C 33.457031 -9.554688 33.710938 -8.007812 33.890625 -6.71875 C 34.046875 -7.96875 34.300781 -9.519531 34.65625 -11.375 C 35.007812 -13.226562 35.328125 -14.726562 35.609375 -15.875 L 40.0625 -34.96875 L 47.359375 -34.96875 Z M 38.453125 0 "/></g></g></g><g fill="#ffffff" fill-opacity="1"><g transform="translate(561.346212, 316.392363)"><g><path d="M 25.8125 0 L 23.265625 -8.328125 L 10.53125 -8.328125 L 7.984375 0 L 0 0 L 12.34375 -35.109375 L 21.40625 -35.109375 L 33.796875 0 Z M 21.5 -14.546875 C 19.15625 -22.085938 17.832031 -26.351562 17.53125 -27.34375 C 17.238281 -28.332031 17.03125 -29.113281 16.90625 -29.6875 C 16.382812 -27.644531 14.878906 -22.597656 12.390625 -14.546875 Z M 21.5 -14.546875 "/></g></g></g><g fill="#ffffff" fill-opacity="1"><g transform="translate(595.143335, 316.392363)"><g><path d="M 11.8125 -19.453125 L 14.203125 -19.453125 C 16.546875 -19.453125 18.273438 -19.84375 19.390625 -20.625 C 20.515625 -21.40625 21.078125 -22.628906 21.078125 -24.296875 C 21.078125 -25.953125 20.503906 -27.128906 19.359375 -27.828125 C 18.222656 -28.535156 16.457031 -28.890625 14.0625 -28.890625 L 11.8125 -28.890625 Z M 11.8125 -13.421875 L 11.8125 0 L 4.40625 0 L 4.40625 -34.96875 L 14.59375 -34.96875 C 19.34375 -34.96875 22.859375 -34.101562 25.140625 -32.375 C 27.421875 -30.644531 28.5625 -28.019531 28.5625 -24.5 C 28.5625 -22.4375 27.992188 -20.601562 26.859375 -19 C 25.722656 -17.394531 24.117188 -16.140625 22.046875 -15.234375 C 27.316406 -7.367188 30.75 -2.289062 32.34375 0 L 24.109375 0 L 15.765625 -13.421875 Z M 11.8125 -13.421875 "/></g></g></g><g fill="#ffffff" fill-opacity="1"><g transform="translate(627.481422, 316.392363)"><g><path d="M 24.546875 0 L 4.40625 0 L 4.40625 -34.96875 L 24.546875 -34.96875 L 24.546875 -28.890625 L 11.8125 -28.890625 L 11.8125 -21.21875 L 23.65625 -21.21875 L 23.65625 -15.140625 L 11.8125 -15.140625 L 11.8125 -6.125 L 24.546875 -6.125 Z M 24.546875 0 "/></g></g></g></svg>