<svg width="18" height="17" viewBox="0 0 18 17" fill="none" xmlns="http://www.w3.org/2000/svg">
<path d="M15.7466 1.52478C16.3274 2.06742 16.4096 2.94142 15.9775 3.57937C18.0764 6.44957 18.1292 10.3798 16.0664 13.3116C16.4987 13.9159 16.4605 14.7608 15.9338 15.3246C15.3702 15.9276 14.4482 15.9943 13.8056 15.5041C11.0854 17.2894 7.53352 17.3341 4.7626 15.5834C4.15544 16.0578 3.27783 16.0352 2.69708 15.4926C2.11633 14.95 2.03342 14.0753 2.46554 13.4374C0.531207 10.7918 0.33418 7.24482 1.93069 4.40988C1.39853 3.80205 1.40283 2.87813 1.96591 2.27508C2.49247 1.71147 3.33236 1.61568 3.9646 2.00539C6.74936 -0.251672 10.6744 -0.465592 13.6804 1.43333C14.2876 0.958755 15.1658 0.982116 15.7466 1.52478ZM15.3777 4.10828C14.7982 4.4016 14.0742 4.32169 13.5719 3.85252C13.0696 3.38321 12.94 2.6658 13.1934 2.06757C10.5013 0.403558 7.01496 0.594965 4.51827 2.58147C4.8498 3.17051 4.77966 3.92958 4.29365 4.44978C3.84567 4.92903 3.1719 5.06859 2.59132 4.86002C1.19495 7.39333 1.36976 10.5395 3.06592 12.9078C3.64545 12.6146 4.36961 12.6958 4.87178 13.1649C5.37385 13.634 5.50313 14.3504 5.25023 14.9485C7.7279 16.48 10.8775 16.44 13.3102 14.8756C13.0634 14.3107 13.1586 13.6291 13.606 13.1499C14.0919 12.6299 14.844 12.508 15.4541 12.7983C17.2664 10.1723 17.221 6.68129 15.3777 4.10828Z" fill="#7E886C"/>
</svg>
